<svg width="150" height="450" opacity="0.5" xmlns="http://www.w3.org/2000/svg" style="vector-effect: non-scaling-stroke;">

 <g>
  <title>background</title>
  <rect fill="none" id="canvas_background" height="452" width="152" y="-1" x="-1"/>
  <g style="vector-effect: non-scaling-stroke;" display="none" overflow="visible" y="0" x="0" height="100%" width="100%" id="canvasGrid">
   <rect fill="url(#gridpattern)" stroke-width="0" y="163.42804" x="74.77531" height="500" width="150"/>
  </g>
 </g>
 <g>
  <title>Layer 1</title>
  <g id="svg_98">
   <g id="svg_53" fill="#ffffff" transform="matrix(0.0457283, 0, 0, -0.0457283, -290.726, -59.4294)">
    <path id="svg_54" d="m4928.03972,2718.0173c27,-28 27,-31 27,-159c0,-73 -4,-134 -10,-138c-14,-9 -36,34 -54,109c-28,113 -63,167 -117,181c-34,8 -49,-12 -51,-67c-2,-106 26,-159 146,-278l86,-85l0,-107c0,-91 -2,-108 -16,-108c-15,0 -22,14 -59,114c-24,65 -69,116 -104,116c-35,0 -51,-17 -51,-54c1,-57 39,-117 135,-216l95,-96l0,-153c0,-140 -1,-152 -17,-149c-13,2 -23,23 -35,73c-26,103 -47,153 -81,191c-40,47 -62,57 -87,44c-17,-9 -20,-21 -20,-78c0,-95 27,-146 144,-269l96,-103l0,-160c0,-134 -2,-160 -15,-160c-13,0 -45,82 -45,117c0,28 -50,123 -86,162c-31,35 -43,41 -68,39l-31,-3l1,-75c1,-102 27,-153 129,-254c120,-120 115,-106 115,-283c0,-84 -3,-153 -7,-153c-23,1 -36,25 -48,89c-28,146 -130,262 -183,209c-17,-17 -15,-95 4,-159c14,-47 31,-69 122,-162l106,-107l4,-95c6,-124 -5,-225 -23,-225c-13,0 -35,56 -35,91c0,8 -10,43 -21,78c-51,151 -182,195 -165,56c12,-102 32,-140 137,-252l99,-105l0,-133c0,-74 -4,-136 -8,-139c-18,-11 -34,15 -51,85c-32,136 -73,193 -132,187c-33,-3 -34,-4 -37,-54c-5,-87 28,-156 118,-245c96,-96 110,-124 110,-227c0,-58 4,-83 15,-92c20,-16 65,-4 66,18c0,9 1,58 2,109c2,90 3,92 37,128c19,21 60,54 91,75c70,49 111,95 150,171c21,42 29,72 27,97c-3,33 -6,37 -35,40c-41,4 -101,-27 -141,-73c-39,-44 -57,-77 -71,-135c-17,-63 -32,-100 -42,-100c-5,0 -9,62 -9,138l0,139l63,59c35,32 88,80 118,105c66,57 115,136 131,212c11,50 10,59 -4,73c-37,37 -139,-15 -198,-101c-29,-43 -51,-97 -79,-202c-7,-24 -17,-43 -22,-43c-8,0 -10,54 -8,169l4,170l35,37c19,20 69,62 111,95c83,63 127,120 159,207c27,71 24,116 -9,120c-39,6 -68,-6 -118,-50c-74,-63 -100,-105 -134,-210c-18,-54 -36,-95 -40,-92c-5,3 -9,75 -9,161c0,188 0,188 133,300c134,112 172,165 197,276c13,58 1,87 -36,87c-38,0 -74,-23 -131,-82c-60,-64 -85,-111 -108,-197c-17,-65 -34,-101 -48,-101c-4,0 -5,80 -1,178l7,177l34,43c19,23 67,68 106,99c91,73 121,107 151,168c33,69 42,128 22,145c-24,19 -73,5 -131,-40c-68,-52 -107,-108 -139,-200c-52,-147 -60,-137 -51,65l7,156l51,55c27,30 71,69 96,86c111,75 164,149 159,221l-3,42l-39,-2c-79,-5 -168,-92 -215,-210c-41,-101 -51,-94 -51,39c0,122 2,130 64,197c17,18 56,50 86,71c102,70 163,158 176,252c8,59 -10,76 -66,59c-67,-20 -126,-84 -183,-200c-29,-58 -58,-107 -64,-109c-10,-3 -13,27 -13,126c0,129 0,129 30,167c17,21 30,39 30,41c0,2 -46,4 -102,4l-102,0l27,-28z"/>
    <path id="svg_55" d="m7415.03972,2739.0173c0,-5 7,-17 15,-27c12,-15 15,-52 15,-155c0,-225 -19,-272 -51,-125c-31,142 -79,238 -124,250c-60,15 -85,-44 -65,-158c15,-82 47,-139 149,-258l81,-94l0,-184c0,-211 -11,-232 -45,-86c-26,109 -48,160 -83,197c-42,44 -60,51 -88,32c-21,-13 -24,-23 -24,-73c0,-63 22,-149 48,-191c9,-14 34,-48 57,-76c23,-27 63,-76 88,-108l47,-58l0,-175c0,-201 -11,-222 -46,-87c-31,123 -52,169 -90,203c-68,59 -111,24 -100,-83c8,-88 60,-185 142,-272c36,-38 72,-81 79,-95c15,-30 28,-269 19,-341c-10,-72 -26,-49 -58,80c-37,150 -95,228 -151,203c-33,-15 -40,-52 -27,-134c14,-96 42,-145 138,-250c47,-50 86,-101 89,-112c9,-49 12,-356 3,-362c-17,-11 -29,12 -44,87c-28,136 -87,229 -146,229c-39,0 -52,-30 -45,-106c7,-90 49,-173 133,-264c120,-129 114,-112 114,-309c0,-164 -6,-196 -29,-153c-5,9 -17,49 -26,87c-10,39 -28,91 -41,116c-41,82 -112,123 -145,83c-23,-28 -14,-126 17,-189c28,-58 210,-265 242,-276c29,-10 76,9 107,45c17,19 61,60 100,91c115,93 170,195 163,297c-3,40 -5,43 -33,46c-38,4 -98,-38 -138,-95c-15,-22 -41,-77 -57,-122c-29,-83 -45,-111 -62,-111c-5,0 -8,80 -6,201l3,200l61,57c34,31 85,77 114,102c69,58 109,140 117,239l6,71l-40,0c-40,0 -76,-20 -116,-65c-27,-30 -74,-125 -87,-175c-14,-54 -37,-93 -50,-85c-13,8 -13,306 -1,358c13,57 58,114 122,158c69,46 99,82 134,155c34,71 46,183 21,203c-25,21 -63,5 -118,-47c-40,-39 -56,-66 -92,-157c-64,-158 -76,-154 -75,22c1,242 12,270 137,364c107,81 148,149 159,264l6,65l-44,0c-25,0 -55,-8 -71,-18c-47,-31 -100,-109 -128,-190c-18,-50 -34,-78 -44,-80c-16,-3 -17,12 -14,175l3,180l35,45c19,25 61,65 92,88c105,77 160,162 173,265c9,68 -8,90 -59,81c-71,-14 -150,-109 -191,-231c-22,-63 -35,-81 -46,-63c-10,16 -12,291 -2,339c7,35 71,105 170,187c72,58 126,166 127,253c1,46 -3,64 -15,72c-24,15 -65,0 -111,-41c-54,-49 -92,-110 -119,-191c-46,-142 -63,-113 -57,102c2,87 9,151 16,165c13,22 13,22 -63,22c-41,0 -75,-3 -75,-7z"/>
    <path id="svg_56" d="m8306.03972,2697.0173l49,-48l0,-202c0,-188 -5,-223 -27,-188c-4,6 -17,51 -30,99c-28,113 -74,198 -136,254c-56,50 -87,62 -123,45c-21,-9 -24,-17 -24,-63c0,-140 53,-233 208,-370c62,-55 118,-111 123,-125c5,-13 9,-110 9,-214c0,-174 -2,-190 -17,-187c-12,2 -23,28 -39,94c-23,95 -58,175 -101,232c-35,47 -101,92 -133,92c-44,0 -53,-21 -48,-105c8,-123 45,-185 200,-335l129,-125l0,-100c1,-245 0,-265 -16,-265c-9,0 -18,17 -25,43c-41,169 -100,273 -184,322c-89,52 -128,22 -107,-82c26,-131 68,-190 255,-359l79,-71l-7,-189c-4,-104 -10,-191 -12,-193c-13,-13 -34,33 -48,101c-33,163 -139,298 -234,298c-48,0 -58,-33 -37,-126c26,-115 53,-159 185,-289c66,-66 122,-127 125,-135c8,-26 -22,-341 -34,-353c-16,-16 -20,-7 -31,79c-13,92 -44,163 -101,228c-64,73 -127,97 -149,57c-14,-27 -12,-106 4,-166c24,-90 56,-137 165,-242l106,-102l-2,-83c-3,-114 -24,-288 -35,-288c-11,0 -28,44 -28,73c0,11 -12,59 -26,105c-19,65 -35,94 -67,129c-38,42 -84,73 -106,73c-21,0 -41,-33 -41,-70c0,-128 51,-236 166,-352c82,-85 87,-88 130,-88c53,0 74,10 133,62c24,21 86,59 137,84c105,51 152,95 206,195c46,81 55,121 33,143c-22,21 -43,20 -112,-6c-114,-42 -174,-100 -238,-229c-38,-76 -72,-122 -85,-114c-4,2 -1,35 6,72c7,37 18,113 25,167c12,98 12,100 55,141c25,23 76,59 115,81c87,47 161,126 203,214c25,53 31,78 31,135c0,65 -2,70 -23,73c-35,5 -108,-35 -167,-92c-54,-53 -108,-146 -139,-243c-20,-61 -42,-85 -53,-58c-3,10 1,99 10,198c18,207 15,201 142,284c94,62 159,133 201,218c53,109 59,215 12,215c-36,0 -106,-39 -153,-87c-59,-59 -93,-119 -130,-227c-36,-106 -55,-122 -55,-46c0,121 22,346 36,367c8,13 54,52 104,88c146,108 219,210 228,321c10,117 -18,131 -119,61c-78,-53 -137,-136 -173,-243c-31,-94 -40,-109 -58,-102c-11,5 -12,23 -7,89c4,46 8,120 8,164c2,134 17,164 122,235c140,96 218,215 227,343c7,109 -22,122 -121,56c-76,-50 -137,-146 -171,-268c-19,-69 -35,-105 -47,-112c-18,-9 -19,-2 -13,178c3,103 7,202 10,218c5,34 52,84 151,158c114,87 175,180 196,300c15,87 1,122 -44,113c-66,-13 -177,-115 -218,-199c-11,-23 -29,-78 -40,-121c-11,-43 -25,-84 -30,-89c-25,-25 -29,12 -21,173c5,91 9,178 10,195c0,22 13,42 56,82l56,53l-155,0l-154,0l48,-49z"/>
    <path id="svg_57" d="m10878.03972,2703.0173c73,-67 79,-92 85,-319c3,-141 2,-198 -6,-198c-16,0 -31,31 -58,126c-36,124 -131,274 -173,274c-39,0 -54,-35 -49,-109c9,-118 60,-204 225,-380l60,-65l7,-107c8,-130 -1,-259 -19,-259c-14,0 -29,34 -46,105c-18,75 -64,159 -111,205c-95,91 -141,52 -104,-86c24,-90 65,-152 155,-233c47,-42 93,-84 103,-93c16,-16 18,-37 18,-198c0,-225 -14,-236 -67,-51c-38,134 -100,223 -171,245c-54,17 -67,-45 -32,-155c32,-104 76,-163 213,-285l57,-52l0,-176c0,-97 -4,-176 -9,-176c-17,0 -30,26 -46,92c-39,154 -128,265 -193,242c-26,-9 -27,-13 -25,-72c3,-114 78,-232 213,-337c51,-40 60,-63 60,-160c0,-49 -3,-120 -7,-158c-8,-86 -24,-76 -47,27c-22,95 -86,201 -138,228c-68,35 -95,6 -77,-85c19,-101 53,-155 165,-262l104,-100l0,-127c0,-122 -8,-154 -31,-131c-5,5 -17,38 -26,74c-21,86 -44,128 -92,172c-45,40 -52,43 -83,26c-18,-10 -20,-17 -14,-67c11,-90 38,-137 141,-242l95,-96l0,-67c0,-37 -3,-67 -7,-67c-17,0 -30,17 -51,61c-39,80 -105,134 -151,122c-29,-7 -35,-35 -16,-80c19,-46 51,-80 126,-138c93,-71 123,-80 167,-49c18,13 22,22 17,45c-4,16 -3,53 0,84c6,45 15,63 47,100c23,25 66,63 97,84c102,70 178,172 197,267c8,41 -18,68 -55,59c-90,-22 -163,-96 -211,-213c-18,-42 -37,-83 -42,-89c-26,-32 -30,-10 -23,125l7,137l36,44c20,24 56,58 81,75c131,90 203,197 205,306c1,54 1,55 -30,58c-70,7 -186,-115 -233,-245c-27,-76 -43,-105 -59,-111c-11,-3 -12,26 -7,149c3,85 8,164 10,175c6,28 75,97 146,145c64,43 100,83 131,143c24,47 48,129 48,167c0,63 -62,61 -136,-4c-64,-56 -109,-130 -140,-229c-30,-92 -39,-107 -55,-91c-7,7 -8,63 -3,184l7,173l41,44c22,24 68,64 102,88c113,81 174,177 182,286c4,64 3,68 -19,76c-35,13 -76,-5 -125,-53c-55,-56 -91,-118 -128,-228c-22,-65 -36,-93 -49,-95c-17,-4 -18,5 -12,165c5,128 11,176 24,203c11,22 52,61 114,107c127,97 183,181 202,306c12,81 -37,102 -112,48c-67,-49 -118,-130 -173,-276c-16,-43 -31,-70 -40,-70c-13,0 -14,27 -12,180c5,215 10,229 125,323c101,84 141,128 173,192c46,92 45,256 -2,274c-18,7 -68,-43 -127,-128c-63,-90 -90,-146 -116,-235c-20,-71 -43,-112 -57,-99c-3,4 -2,99 4,213l9,206l39,41c21,22 61,58 87,79l49,39l-202,0l-203,0l46,-43z"/>
    <path id="svg_58" d="m10511.03972,2661.0173c-44,-41 -29,-96 31,-111c52,-13 87,81 45,119c-25,23 -45,21 -76,-8z"/>
    <path id="svg_59" d="m7785.03972,2251.0173c-19,-22 -15,-67 6,-82c28,-20 66,-12 83,18c13,24 13,29 -2,53c-20,30 -67,36 -87,11z"/>
    <path id="svg_60" d="m7765.03972,1707.0173c-24,-46 -5,-95 40,-106c48,-11 84,69 50,110c-18,22 -77,20 -90,-4z"/>
    <path id="svg_61" d="m10479.03972,1521.0173c-10,-40 13,-85 45,-85c54,0 62,28 25,88c-20,31 -62,30 -70,-3z"/>
    <path id="svg_62" d="m7783.03972,1215.0173c-12,-7 -18,-23 -18,-49c0,-31 5,-43 26,-56c55,-37 116,25 83,84c-16,30 -61,40 -91,21z"/>
    <path id="svg_63" d="m10489.03972,1032.0173c-3,-14 -1,-41 6,-60c9,-28 17,-36 36,-36c16,0 27,8 33,23c10,27 5,45 -22,75c-27,29 -45,28 -53,-2z"/>
    <path id="svg_64" d="m7771.03972,660.0173c-21,-21 -20,-40 5,-65c14,-14 30,-19 52,-17c26,2 33,9 41,37c8,28 7,36 -9,47c-25,19 -70,18 -89,-2z"/>
    <path id="svg_65" d="m10496.03972,529.0173c0,-27 4,-57 8,-67c9,-24 51,-33 51,-11c0,8 5,15 10,15c18,0 11,57 -11,84c-11,14 -29,26 -40,26c-16,0 -19,-7 -18,-47z"/>
    <path id="svg_66" d="m7767.03972,114.0173c-16,-16 -15,-63 2,-77c8,-7 30,-11 48,-9c29,3 33,7 36,36c2,18 -2,40 -9,48c-14,17 -61,18 -77,2z"/>
    <path id="svg_67" d="m5215.03972,-245.9827c-69,-28 -93,-45 -120,-86c-52,-78 -35,-131 42,-132c42,0 61,20 73,77c6,30 58,87 101,111c15,8 16,13 5,26c-15,18 -63,20 -101,4z"/>
    <path id="svg_68" d="m4725.03972,-291.9827c-19,-16 -22,-24 -16,-55c8,-45 46,-92 85,-105c62,-22 93,57 51,126c-31,51 -82,65 -120,34z"/>
    <path id="svg_69" d="m11150.03972,-318.9827c-27,-26 -34,-89 -15,-126c22,-41 92,-9 107,49c3,13 0,41 -6,63c-10,32 -16,39 -37,39c-14,0 -36,-11 -49,-25z"/>
    <path id="svg_70" d="m11335.03972,-323.9827c-29,-29 -27,-94 5,-125c13,-14 34,-25 46,-25c31,0 79,56 79,92c0,64 -86,102 -130,58z"/>
    <path id="svg_71" d="m5303.03972,-359.9827c-20,-11 -28,-22 -28,-43c0,-33 37,-71 68,-71c29,0 62,34 62,65c0,29 -32,65 -57,65c-10,-1 -30,-8 -45,-16z"/>
    <path id="svg_72" d="m8740.03972,-354.9827c-51,-25 -55,-92 -8,-129c35,-27 55,-25 92,9c34,32 38,58 16,101c-13,24 -22,30 -48,29c-17,0 -41,-5 -52,-10z"/>
    <path id="svg_73" d="m7760.03972,-383.9827c-13,-14 -16,-29 -12,-56c8,-49 33,-74 72,-74c64,0 100,85 55,130c-27,27 -90,27 -115,0z"/>
    <path id="svg_74" d="m10529.03972,-388.9827c-27,-42 2,-105 49,-105c58,0 86,59 51,108c-22,32 -78,30 -100,-3z"/>
    <path id="svg_75" d="m7193.03972,-1654.9827c-37,-21 -15,-197 38,-301c14,-29 57,-87 94,-129c38,-43 74,-87 80,-99c9,-16 12,-87 11,-234c-1,-115 -4,-212 -7,-215c-12,-13 -29,25 -34,81c-10,91 -35,169 -72,223c-40,57 -75,80 -111,71c-36,-9 -43,-53 -23,-156c21,-112 61,-190 146,-285c40,-44 76,-87 80,-95c12,-22 21,-423 10,-440c-12,-19 -14,-12 -39,112c-29,148 -105,278 -162,278c-34,0 -49,-28 -49,-93c0,-129 49,-244 147,-348c110,-118 103,-94 103,-332c0,-160 -3,-208 -12,-205c-7,3 -20,41 -29,86c-35,174 -101,292 -165,292c-35,0 -46,-24 -45,-97c1,-137 46,-244 147,-353c113,-122 104,-94 104,-331c0,-187 -6,-240 -24,-210c-4,5 -13,48 -21,95c-18,104 -55,199 -96,250c-26,30 -37,37 -62,34c-46,-4 -59,-37 -53,-123c9,-123 57,-232 136,-315c22,-23 57,-62 77,-87l38,-46l0,-211c0,-132 -4,-212 -10,-214c-5,-2 -20,43 -31,100c-33,155 -84,257 -141,279c-60,23 -84,-36 -64,-160c16,-107 56,-184 141,-277c109,-119 110,-120 110,-371c0,-194 -5,-235 -24,-204c-4,5 -15,55 -27,112c-11,56 -33,129 -48,163c-83,181 -189,140 -152,-59c18,-95 69,-190 151,-280c40,-44 79,-94 86,-112c10,-24 14,-86 14,-228c0,-167 -2,-195 -15,-195c-8,0 -15,1 -15,3c0,1 -6,38 -14,82c-33,186 -114,317 -181,291c-52,-20 -39,-201 23,-323c11,-21 55,-77 97,-123c43,-47 84,-99 91,-117c19,-44 20,-417 2,-411c-7,3 -16,22 -20,44c-41,212 -97,324 -162,324c-42,0 -56,-24 -56,-99c0,-128 48,-240 150,-346c107,-112 100,-89 100,-333c0,-165 -3,-213 -12,-210c-7,3 -20,48 -29,106c-28,162 -90,272 -154,272c-53,0 -68,-73 -41,-201c20,-94 57,-160 141,-254c40,-45 78,-93 86,-106c9,-18 12,-78 10,-229c-1,-112 -4,-207 -7,-209c-10,-10 -18,14 -35,101c-29,153 -73,248 -130,279c-20,10 -56,-3 -71,-25c-13,-19 -9,-126 8,-190c21,-81 51,-132 136,-224c38,-42 76,-88 83,-102c8,-17 14,-93 17,-230c7,-276 -6,-311 -42,-120c-23,121 -61,210 -107,250c-38,34 -50,36 -81,14c-18,-13 -22,-25 -22,-74c0,-134 45,-243 143,-349c114,-121 107,-99 107,-341c0,-165 -3,-211 -12,-208c-7,3 -21,45 -30,94c-33,174 -90,274 -156,274c-39,0 -52,-22 -52,-89c0,-126 42,-229 135,-332c119,-131 113,-115 117,-336c2,-105 -1,-195 -5,-199c-13,-14 -24,15 -42,110c-19,107 -40,158 -85,209c-25,29 -40,37 -65,37c-18,0 -37,-6 -42,-12c-31,-40 -20,-151 24,-251c19,-42 51,-87 104,-142c113,-119 112,-116 110,-328c-1,-99 -4,-184 -7,-189c-11,-17 -22,3 -29,54c-24,170 -91,288 -165,288c-44,0 -53,-20 -48,-109c6,-104 44,-182 131,-271c89,-91 116,-136 124,-201c7,-65 17,-79 54,-79c41,0 59,24 59,79c0,63 41,125 124,189c33,26 72,58 85,72c60,63 121,269 91,305c-34,42 -124,-2 -193,-95c-32,-42 -51,-83 -72,-153c-15,-53 -32,-94 -37,-91c-4,3 -8,92 -8,198l0,193l29,40c16,22 55,62 87,89c129,109 161,159 189,291c22,104 20,131 -11,139c-80,20 -200,-106 -239,-251c-8,-33 -20,-77 -26,-98c-20,-76 -29,-24 -29,181c0,206 0,206 26,244c15,20 66,71 114,113c63,54 96,91 118,133c37,70 64,170 60,225c-3,38 -6,42 -32,45c-44,5 -82,-16 -135,-73c-55,-61 -85,-119 -113,-219c-10,-38 -22,-74 -25,-79c-17,-28 -23,39 -17,218c7,237 5,232 146,352c74,62 93,85 123,146c35,73 64,199 52,230c-18,47 -94,32 -156,-31c-57,-58 -103,-143 -130,-241c-11,-41 -23,-76 -25,-78c-13,-13 -18,109 -12,266c7,170 8,177 34,216c15,22 65,72 111,111c45,39 94,88 107,108c50,73 94,239 74,276c-16,30 -68,26 -121,-10c-80,-52 -133,-133 -164,-250c-10,-36 -21,-69 -25,-73c-15,-17 -20,91 -12,254c10,195 8,191 138,300c89,74 121,116 154,200c26,65 36,158 21,187c-22,42 -93,18 -167,-56c-52,-51 -82,-107 -114,-209c-13,-41 -27,-70 -33,-66c-6,4 -7,77 -2,207c8,232 9,236 112,322c154,131 190,185 215,335c10,54 9,70 -1,83c-29,35 -91,11 -173,-67c-46,-43 -84,-113 -109,-197c-12,-44 -26,-80 -30,-80c-26,0 -19,390 8,443c7,15 61,67 119,114c93,77 109,95 139,158c36,72 53,161 41,209c-9,36 -58,35 -117,-2c-79,-51 -128,-128 -164,-259c-12,-42 -23,-63 -33,-63c-13,0 -14,27 -10,210c7,247 4,240 134,356c43,38 89,80 101,94c55,60 111,219 97,276c-5,21 -12,24 -56,24c-44,0 -53,-4 -98,-46c-68,-63 -109,-132 -134,-222c-12,-42 -26,-75 -31,-72c-6,3 -9,88 -9,213c2,206 2,208 28,245c25,36 84,90 156,143c93,68 182,304 137,363c-35,47 -167,-38 -231,-147c-14,-23 -35,-81 -47,-129c-12,-49 -25,-88 -30,-88c-18,0 -22,57 -17,244c4,151 8,198 21,223c15,29 95,103 189,174c80,62 161,302 116,347c-45,45 -183,-48 -241,-164c-9,-17 -25,-64 -37,-105c-11,-40 -24,-77 -29,-82c-29,-29 -26,385 3,441c9,17 51,59 93,93c120,96 143,120 172,179c38,76 53,135 49,200c-3,51 -5,55 -30,58c-37,4 -95,-28 -149,-85c-54,-55 -89,-120 -114,-210c-11,-38 -23,-63 -31,-63c-16,0 -17,75 -5,290c8,149 7,148 144,260c99,82 146,145 171,234c24,84 30,144 16,161c-33,40 -135,-4 -203,-87c-42,-51 -68,-105 -93,-196c-28,-105 -38,-65 -35,155c2,138 6,204 15,222c8,13 62,65 122,115c100,83 112,98 149,171c35,71 39,87 40,155l0,75l-32,3c-91,9 -213,-123 -246,-265c-29,-123 -47,-108 -47,40c1,156 15,290 34,320c9,13 53,53 97,88c92,73 148,150 177,241c44,137 38,188 -22,188c-39,0 -139,-62 -181,-112c-37,-44 -79,-131 -104,-215c-25,-85 -45,-95 -61,-30c-26,107 -45,152 -92,223c-47,70 -115,134 -142,134c-6,0 -19,-5 -28,-11z"/>
    <path id="svg_76" d="m8037.03972,-1655.9827c-18,-18 -14,-105 8,-194c27,-103 86,-193 179,-269c38,-32 84,-77 100,-101l31,-42l0,-216c0,-125 -4,-217 -10,-221c-9,-6 -12,4 -50,148c-11,43 -30,97 -41,120c-66,130 -182,220 -227,175c-16,-16 -15,-111 2,-175c31,-117 61,-162 185,-283c65,-63 124,-125 130,-138c12,-23 17,-449 6,-461c-11,-10 -22,20 -39,107c-28,145 -99,275 -175,323c-47,31 -89,37 -109,17c-21,-21 -14,-136 13,-212c35,-101 83,-165 192,-260c54,-47 104,-96 112,-108c21,-33 28,-468 8,-468c-8,0 -22,33 -36,93c-44,174 -128,308 -218,349c-81,36 -105,-5 -80,-135c27,-137 63,-195 208,-337l127,-125l6,-80c8,-99 4,-365 -5,-371c-14,-8 -29,25 -44,101c-9,44 -26,103 -38,130c-63,150 -179,251 -248,215c-20,-11 -21,-17 -16,-84c13,-164 75,-280 210,-394c47,-40 99,-89 114,-109l28,-36l3,-210c2,-115 0,-217 -3,-225c-11,-29 -32,9 -50,93c-30,140 -101,270 -177,326c-43,31 -95,38 -116,17c-17,-17 -15,-102 3,-172c30,-116 62,-163 196,-296c70,-69 132,-135 138,-147c15,-29 15,-443 0,-443c-14,0 -34,52 -49,125c-14,69 -63,171 -110,230c-60,76 -145,116 -178,83c-17,-17 -15,-102 3,-172c24,-92 65,-164 125,-220c207,-196 202,-190 211,-237c4,-24 8,-128 9,-231c0,-154 -3,-188 -14,-188c-17,0 -24,17 -41,106c-34,176 -181,360 -270,338c-39,-10 -49,-57 -31,-144c24,-115 65,-190 142,-262c37,-35 96,-90 131,-123c54,-51 66,-69 74,-105c10,-52 10,-374 0,-409c-10,-38 -26,-7 -44,89c-36,190 -178,369 -273,346c-52,-13 -46,-145 12,-263c33,-68 56,-95 174,-210l135,-132l3,-230c3,-166 1,-231 -7,-231c-16,0 -27,30 -51,133c-22,96 -45,147 -98,221c-62,85 -159,130 -193,90c-28,-34 -6,-172 43,-272c33,-67 77,-117 199,-224c112,-99 113,-100 104,-344c-9,-245 -19,-262 -51,-89c-29,154 -132,308 -223,336c-78,23 -104,-26 -77,-146c30,-132 66,-186 213,-331l133,-130l0,-234c0,-268 -7,-281 -54,-101c-32,129 -62,196 -111,249c-53,59 -97,84 -142,80c-51,-4 -61,-33 -45,-128c22,-131 56,-185 212,-345l140,-145l0,-128c0,-179 -10,-314 -24,-309c-6,2 -21,50 -33,107c-13,57 -36,132 -52,167c-77,164 -251,241 -251,110c0,-56 35,-180 68,-242c16,-30 77,-99 151,-172l124,-123l-7,-202c-4,-111 -9,-204 -12,-207c-12,-12 -27,24 -45,114c-24,117 -63,198 -119,249c-46,41 -77,56 -120,56c-52,0 -62,-46 -34,-159c27,-108 69,-175 192,-304c130,-137 120,-101 101,-369c-11,-156 -23,-202 -34,-132c-17,107 -37,178 -64,231c-37,70 -56,94 -106,127c-45,31 -80,33 -95,7c-24,-46 -1,-209 42,-295c11,-22 65,-85 119,-141c91,-93 100,-106 109,-155c12,-63 12,-62 46,-62c33,0 64,33 64,68c0,13 8,32 18,42c40,37 116,96 186,143c123,82 176,148 223,276c28,78 30,129 5,142c-42,23 -166,-35 -238,-111c-55,-57 -82,-105 -115,-201c-25,-71 -61,-129 -72,-116c-5,4 15,203 34,336c10,75 14,86 49,122c21,21 62,57 91,78c151,112 215,192 248,313c28,101 28,148 -1,159c-48,18 -140,-30 -212,-110c-42,-45 -85,-134 -106,-214c-7,-27 -19,-65 -28,-82c-15,-34 -42,-45 -42,-17c0,26 30,357 36,392c6,36 35,66 175,178c107,84 159,153 189,251c35,112 22,193 -31,193c-24,0 -92,-40 -133,-78c-80,-76 -123,-162 -166,-329c-6,-26 -17,-43 -25,-43c-18,0 -19,23 -4,270c6,104 16,192 23,201c6,9 66,62 132,118c129,106 171,159 205,255c25,74 35,166 20,194c-17,32 -67,29 -124,-9c-99,-65 -162,-166 -199,-314c-20,-85 -40,-126 -54,-113c-4,4 -3,112 2,239l9,231l55,51c30,28 87,74 125,103c39,28 83,68 99,88c82,109 127,298 83,354c-16,20 -47,14 -99,-19c-103,-66 -183,-188 -214,-327c-17,-74 -37,-113 -51,-99c-9,9 -4,345 6,416c6,42 14,52 139,165c73,67 147,141 163,166c64,97 92,276 50,314c-23,21 -48,15 -107,-25c-97,-66 -157,-165 -202,-332c-19,-71 -32,-102 -42,-102c-13,0 -15,27 -12,180c4,266 6,279 54,331c22,23 81,77 132,119c105,86 149,149 177,253c22,76 25,162 7,180c-18,18 -67,14 -104,-9c-51,-31 -129,-124 -162,-193c-17,-33 -38,-94 -48,-134c-16,-70 -37,-108 -53,-97c-11,6 -1,415 11,447c9,25 98,105 198,180c91,68 149,173 172,309c8,52 8,76 0,94c-32,70 -174,-18 -258,-161c-16,-27 -45,-98 -65,-158c-56,-171 -63,-158 -56,102c6,263 2,252 134,357c48,39 107,89 130,112c75,76 113,175 113,300c0,63 -3,74 -20,83c-82,44 -237,-141 -305,-363c-23,-75 -45,-111 -59,-96c-2,2 0,105 5,228c11,263 4,245 143,355c50,40 108,92 130,116c68,76 106,186 106,309c0,89 -31,103 -112,52c-89,-57 -169,-186 -218,-351c-12,-41 -27,-81 -32,-87c-29,-35 -29,-15 -12,334c6,107 7,115 37,152c18,22 68,69 113,104c130,105 177,171 209,294c15,58 20,149 9,177c-11,28 -62,19 -115,-19c-102,-76 -171,-187 -209,-340c-21,-85 -36,-113 -52,-97c-10,10 8,422 20,452c10,25 102,117 195,195c84,70 139,179 158,311c7,52 7,79 -1,94c-36,68 -203,-51 -274,-195c-15,-32 -38,-99 -50,-149c-16,-65 -27,-92 -39,-94c-15,-3 -17,7 -16,80c1,178 16,363 32,395c9,17 51,60 94,96c109,91 165,153 196,219c43,91 68,218 51,262c-17,45 -127,-5 -209,-96c-59,-66 -93,-138 -114,-244c-12,-63 -21,-89 -32,-89c-18,0 -24,193 -11,352l9,106l60,56c32,31 90,84 129,118c98,85 149,186 169,331c6,50 -7,82 -36,82c-61,0 -185,-102 -242,-201c-15,-25 -37,-90 -50,-144c-23,-100 -41,-127 -53,-81c-3,14 -2,115 3,225c12,233 14,239 122,325c143,115 185,169 226,290c30,91 33,161 7,175c-60,32 -224,-77 -296,-198c-34,-57 -51,-99 -82,-203c-31,-107 -52,-98 -84,35c-11,48 -32,111 -46,140c-82,162 -212,275 -262,225z"/>
    <path id="svg_77" d="m7765.03972,-5173.9827c-37,-37 -22,-74 37,-86c34,-7 63,15 63,47c0,25 -35,59 -60,59c-11,0 -29,-9 -40,-20z"/>
    <path id="svg_78" d="m7771.03972,-5765.9827c-24,-13 -21,-74 3,-88c29,-15 39,-13 57,15c29,45 -15,98 -60,73z"/>
    <path id="svg_79" d="m7758.03972,-10614.9827c-31,-11 -63,-58 -63,-91c0,-116 131,-136 174,-27c9,22 13,51 10,64c-10,41 -77,70 -121,54z"/>
    <path id="svg_80" d="m8750.03972,-10625.9827c-32,-18 -44,-40 -44,-78c0,-39 11,-58 51,-84c25,-17 29,-17 63,0c44,21 65,49 65,90c0,48 -34,84 -78,84c-20,0 -46,-6 -57,-12z"/>
    <path id="svg_81" d="m7176.03972,-10669.9827c-64,-81 37,-180 113,-111c41,36 43,71 8,107c-40,40 -91,42 -121,4z"/>
    <path id="svg_82" d="m8001.03972,-10684.9827c-17,-14 -26,-30 -26,-50c0,-67 84,-96 138,-46c27,25 29,77 4,100c-26,23 -84,21 -116,-4z"/>
    <path id="svg_83" d="m8471.03972,-10704.9827c-20,-16 -25,-26 -20,-43c22,-74 102,-74 120,0c8,30 -19,64 -51,64c-12,0 -34,-9 -49,-21z"/>
    <path id="svg_84" d="m8055.03972,-12028.9827c-18,-22 -7,-135 20,-204c31,-79 72,-133 153,-202c40,-34 84,-75 99,-93l27,-31l1,-187c0,-235 -12,-247 -60,-61c-27,103 -81,195 -143,245c-75,59 -117,49 -117,-27c0,-51 23,-143 51,-198c12,-25 71,-90 142,-159l122,-117l3,-195c4,-209 -4,-243 -33,-138c-38,134 -50,165 -89,224c-41,64 -120,128 -156,128c-52,0 -62,-58 -30,-161c33,-108 71,-161 184,-259c66,-57 108,-103 115,-122c14,-40 15,-365 1,-373c-12,-7 -20,11 -56,128c-43,142 -124,248 -201,263c-50,10 -67,-16 -59,-94c14,-135 56,-204 198,-322c57,-47 108,-96 115,-110c15,-30 19,-400 4,-400c-15,0 -22,16 -42,96c-28,111 -63,176 -124,233c-109,98 -161,90 -152,-26c3,-40 16,-85 38,-133c29,-64 45,-82 161,-186l128,-115l0,-190c0,-172 -2,-190 -17,-187c-11,2 -23,30 -40,92c-13,49 -35,110 -49,136c-46,84 -135,160 -188,160c-34,0 -49,-31 -42,-91c13,-125 56,-193 211,-329c62,-55 117,-109 120,-120c5,-16 15,-20 51,-20c40,0 45,3 58,34c10,24 43,56 108,104c164,121 219,205 222,334c1,95 -12,104 -90,64c-91,-48 -154,-137 -204,-291c-22,-68 -38,-91 -52,-77c-3,4 -3,86 1,182c9,206 13,219 104,288c109,83 185,162 213,220c33,71 46,208 21,218c-29,11 -87,-17 -145,-71c-68,-63 -103,-122 -131,-224c-22,-78 -35,-101 -57,-101c-11,0 -13,12 -9,53c3,28 7,118 11,199l6,146l31,33c18,17 67,58 109,90c128,98 177,173 198,302c20,127 -20,141 -143,48c-80,-59 -131,-147 -167,-288c-6,-26 -17,-43 -25,-43c-12,0 -15,22 -15,123c1,67 5,155 9,195c10,87 16,94 148,193c50,38 105,88 122,111c61,83 99,238 67,271c-40,40 -173,-49 -243,-163c-12,-19 -32,-71 -44,-115c-26,-92 -38,-113 -50,-93c-11,16 -10,172 0,289c9,106 23,128 130,203c86,60 135,114 174,192c33,66 51,162 37,199c-9,24 -14,27 -43,21c-43,-9 -131,-70 -173,-121c-43,-53 -68,-111 -89,-202c-11,-49 -21,-73 -31,-73c-16,0 -18,110 -5,291c7,113 23,142 107,204c125,90 212,206 235,314c15,70 1,95 -49,86c-84,-16 -184,-85 -241,-169c-16,-23 -43,-81 -60,-129c-17,-48 -35,-97 -41,-107c-17,-31 -38,-24 -49,18c-5,20 -17,66 -26,101c-23,92 -51,145 -108,207c-48,53 -110,94 -140,94c-8,0 -20,-7 -27,-15z"/>
    <path id="svg_85" d="m7251.03972,-12039.9827c-12,-31 -6,-123 13,-182c22,-73 44,-106 135,-200l71,-74l-3,-171c-2,-95 -5,-180 -8,-190c-10,-32 -22,-8 -34,66c-18,111 -78,229 -131,258c-16,8 -26,7 -46,-6c-25,-17 -26,-20 -20,-90c11,-123 37,-174 143,-286l94,-98l-1,-123c-1,-68 -4,-152 -8,-188c-5,-56 -8,-62 -18,-45c-6,11 -14,38 -18,60c-21,123 -84,249 -131,261c-48,12 -59,-5 -58,-87c3,-116 29,-172 135,-285l89,-95l0,-184c0,-119 -4,-186 -11,-190c-16,-10 -19,-4 -38,92c-29,138 -90,243 -142,243c-46,0 -60,-66 -38,-172c17,-81 44,-125 135,-219c46,-47 86,-98 90,-113c3,-15 5,-98 2,-186c-5,-215 -14,-223 -57,-53c-15,59 -35,122 -44,140c-21,39 -63,73 -92,73c-38,0 -48,-23 -43,-103c7,-107 38,-166 147,-280l91,-96l0,-180c0,-117 -4,-182 -11,-186c-16,-10 -19,-3 -34,72c-33,160 -94,257 -157,251l-33,-3l-3,-63c-6,-121 36,-207 165,-343c67,-69 73,-80 73,-118l0,-41l50,0l50,0l0,38c0,48 25,87 90,142c144,121 183,178 203,295c10,56 9,67 -5,81c-56,56 -198,-85 -243,-241c-9,-30 -22,-55 -29,-55c-25,0 -33,154 -17,298c10,83 37,127 104,171c121,78 187,184 190,306c2,59 1,60 -26,63c-76,9 -181,-112 -232,-266c-30,-94 -40,-62 -38,124l3,169l36,53c21,29 63,71 97,95c34,23 75,61 93,84c31,41 67,133 79,203c15,87 -60,93 -144,11c-53,-52 -83,-102 -116,-195c-35,-102 -45,-86 -45,77c0,79 3,159 7,178c7,34 61,93 178,194c39,33 66,67 82,102c46,100 55,213 17,213c-29,0 -111,-49 -147,-89c-45,-50 -84,-125 -98,-191c-20,-95 -29,-64 -29,108l0,169l32,47c17,27 61,70 97,96c74,54 121,118 150,201c25,75 36,155 21,164c-22,13 -75,-5 -121,-42c-87,-71 -125,-137 -153,-266c-4,-15 -11,-25 -16,-22c-6,4 -10,76 -10,173c0,191 3,202 87,268c77,62 131,123 158,178c29,59 49,157 40,194c-5,22 -10,24 -45,19c-86,-11 -177,-104 -230,-235c-17,-42 -35,-87 -41,-100c-16,-40 -33,-19 -56,70c-28,112 -61,174 -117,226c-49,45 -98,57 -110,26z"/>
    <path id="svg_86" d="m4727.03972,-12055.9827c-27,-27 -7,-177 33,-258c13,-25 64,-86 115,-137l91,-91l-3,-180c-4,-233 -13,-248 -55,-90c-32,121 -77,204 -125,232c-30,16 -41,19 -55,10c-15,-10 -18,-26 -18,-95c0,-117 29,-174 136,-272c113,-102 117,-111 115,-232c-6,-263 -5,-251 -22,-234c-8,9 -24,51 -35,94c-25,97 -51,149 -97,198c-45,46 -88,51 -98,11c-11,-43 2,-147 24,-197c13,-30 59,-87 122,-152c64,-67 100,-113 101,-127c2,-74 -3,-323 -7,-327c-12,-13 -35,32 -53,108c-26,103 -65,178 -110,208c-40,27 -54,28 -75,7c-19,-18 -20,-72 -5,-146c17,-80 33,-104 145,-219l104,-107l0,-176c0,-145 -2,-176 -14,-176c-14,0 -21,15 -65,155c-23,70 -61,134 -100,169c-18,16 -25,17 -46,8c-23,-11 -25,-17 -25,-81c0,-119 21,-162 132,-277c54,-55 104,-117 113,-137c12,-29 14,-64 8,-187c-8,-190 -19,-196 -68,-35c-46,151 -86,215 -136,215c-41,0 -53,-29 -46,-111c9,-102 32,-143 147,-259l102,-102l-4,-64l-3,-64l41,0c46,0 54,11 54,81c0,38 1,40 221,251c50,49 71,78 88,121c24,66 27,125 7,152c-13,18 -15,18 -59,1c-81,-31 -148,-122 -196,-269c-14,-41 -30,-71 -43,-78c-20,-11 -20,-9 -17,174l4,184l40,45c22,24 70,68 107,97c36,29 78,65 91,80c43,44 79,129 84,195c9,104 -32,110 -135,21c-59,-51 -99,-113 -129,-198c-54,-155 -63,-146 -63,64c0,107 4,178 11,192c25,47 83,109 154,162c111,84 165,181 165,297c0,57 -12,66 -64,48c-85,-28 -175,-146 -212,-278c-10,-38 -25,-67 -36,-73c-17,-9 -18,-2 -18,128c0,207 5,235 53,289c22,25 65,62 97,84c96,65 157,152 180,256c16,70 7,94 -33,94c-92,0 -207,-137 -252,-297c-12,-42 -23,-63 -33,-63c-12,0 -14,24 -10,168c4,150 7,172 25,203c27,42 91,103 160,153c63,45 107,109 133,194c41,132 16,171 -78,123c-86,-44 -156,-142 -191,-271c-12,-41 -28,-81 -37,-90c-15,-14 -16,0 -10,184c6,196 7,201 33,238c14,22 54,61 88,88c121,96 175,170 196,270c15,72 7,100 -32,100c-36,0 -57,-10 -126,-62c-68,-51 -117,-126 -144,-218c-12,-41 -28,-82 -36,-90c-12,-13 -16,-12 -33,9c-10,14 -28,59 -40,100c-29,103 -63,162 -126,221c-53,50 -80,60 -102,38z"/>
    <path id="svg_87" d="m10664.03972,-12070.9827c-16,-40 4,-144 40,-218c20,-40 52,-82 93,-120c35,-32 87,-80 116,-107l52,-49l0,-190c0,-156 -2,-189 -14,-189c-14,0 -21,15 -71,165c-42,126 -115,215 -175,215c-39,0 -54,-29 -47,-94c14,-131 71,-225 194,-317c51,-38 97,-78 103,-88c6,-12 10,-95 10,-200c0,-229 -15,-247 -60,-72c-37,144 -87,223 -167,262l-46,22l-19,-24c-17,-20 -19,-32 -13,-79c16,-127 76,-227 186,-310c124,-95 119,-83 119,-286c0,-141 -3,-174 -14,-174c-15,0 -22,15 -65,157c-28,91 -38,109 -84,159c-42,45 -59,56 -87,57c-48,3 -58,-29 -42,-125c23,-132 55,-182 184,-289c43,-36 85,-75 92,-85c26,-38 28,-389 2,-381c-6,2 -27,50 -46,108c-19,57 -46,121 -58,141c-24,38 -117,128 -133,128c-5,0 -19,-10 -30,-21c-19,-19 -21,-29 -16,-83c10,-103 35,-147 166,-280c91,-92 121,-131 130,-161c21,-76 11,-350 -13,-342c-6,2 -28,52 -48,111c-40,114 -97,208 -154,251c-39,30 -55,31 -77,7c-24,-26 -22,-109 5,-179c18,-49 38,-74 130,-163c130,-124 148,-151 148,-214l0,-46l40,0c35,0 40,3 45,28c17,81 21,87 105,155c199,161 244,225 245,346c0,84 -16,96 -80,62c-83,-44 -147,-139 -199,-298c-15,-44 -52,-91 -63,-80c-1,2 2,88 8,192c8,138 14,194 26,211c8,13 66,65 129,115c124,98 148,131 180,248c29,103 -6,137 -95,91c-61,-30 -115,-101 -151,-193c-71,-186 -90,-200 -89,-65c1,51 4,139 8,195c7,118 10,123 138,219c121,92 166,159 193,287c16,80 8,107 -31,107c-96,0 -199,-132 -258,-327c-21,-71 -41,-92 -55,-57c-10,27 14,356 29,383c16,32 63,76 135,128c115,83 173,181 174,292c1,77 -13,92 -65,70c-87,-36 -161,-134 -209,-279c-19,-58 -40,-105 -45,-105c-13,0 -19,182 -10,294l7,84l57,56c31,31 83,76 116,101c33,25 69,60 82,78c48,71 88,225 72,271c-13,34 -59,27 -117,-16c-87,-67 -124,-123 -162,-253c-23,-81 -46,-124 -59,-115c-16,9 -1,366 17,404c9,20 50,61 101,101c129,102 186,189 211,319c11,62 -1,84 -43,76c-110,-23 -213,-141 -262,-298c-23,-74 -31,-60 -37,67c-5,93 -16,124 -40,110c-14,-9 -29,-80 -35,-177c-7,-109 -12,-109 -44,-2c-40,132 -95,220 -173,276c-50,37 -73,37 -87,2z"/>
    <path id="svg_88" d="m7787.03972,-14515.9827c-7,-7 -12,-25 -12,-40c0,-21 6,-29 24,-34c45,-11 71,-1 74,29c2,16 -2,35 -9,43c-14,17 -60,19 -77,2z"/>
    <path id="svg_89" d="m5255.03972,-15050.9827c-37,-19 -66,-44 -88,-76l-34,-47l111,0c110,0 111,0 117,26c9,35 -2,105 -18,115c-20,13 -30,11 -88,-18z"/>
    <path id="svg_90" d="m7817.03972,-15034.9827c-13,-5 -31,-28 -43,-56c-11,-27 -28,-56 -36,-65c-15,-17 -13,-18 45,-18c58,0 61,1 82,35c37,60 8,126 -48,104z"/>
    <path id="svg_91" d="m4727.03972,-15049.9827c-18,-12 -22,-25 -22,-70l0,-54l80,0c44,0 80,2 80,5c0,19 -44,87 -70,109c-37,31 -39,31 -68,10z"/>
    <path id="svg_92" d="m10702.03972,-15040.9827c-25,-6 -37,-42 -30,-92l6,-41l79,0c78,0 79,0 72,23c-13,42 -82,120 -103,116c-3,-1 -14,-3 -24,-6z"/>
    <path id="svg_93" d="m11322.03972,-15053.9827c-40,-12 -108,-58 -135,-91l-24,-29l121,0l121,0l0,39c0,82 -19,100 -83,81z"/>
    <path id="svg_94" d="m10504.03972,-15100.9827c-5,-15 -8,-38 -4,-50c5,-20 12,-23 50,-23c52,0 58,14 25,68c-25,40 -56,43 -71,5z"/>
    <path id="svg_95" d="m7231.03972,-15119.9827c-9,-8 -16,-24 -16,-35c0,-17 8,-19 70,-19c67,0 70,1 60,19c-25,47 -84,65 -114,35z"/>
    <path id="svg_96" d="m8705.03972,-15135.9827l-45,-33l74,-3c40,-2 76,0 79,3c11,11 -23,60 -44,63c-11,2 -40,-12 -64,-30z"/>
    <path id="svg_97" d="m8025.03972,-15132.9827c-19,-36 -12,-41 60,-41c78,0 87,10 38,40c-42,26 -84,26 -98,1z"/>
   </g>
  </g>
 </g>
</svg>